<svg width="25" height="26" viewBox="0 0 25 26" fill="none" xmlns="http://www.w3.org/2000/svg">
<path d="M24.9989 12.9781V13.0021C24.9989 19.9058 19.4026 25.502 12.4989 25.502C9.63361 25.5063 6.85451 24.5221 4.63059 22.7154L4.6535 22.7341C4.5216 22.6274 4.41364 22.4942 4.33664 22.343C4.25963 22.1919 4.21532 22.0262 4.20657 21.8568C4.19783 21.6874 4.22485 21.518 4.28588 21.3598C4.3469 21.2015 4.44057 21.0578 4.56079 20.9381L5.12854 20.3704C5.33777 20.1585 5.61785 20.0313 5.91508 20.0132C6.21231 19.9952 6.50574 20.0875 6.73909 20.2725L6.73701 20.2704C8.37413 21.5731 10.4057 22.2803 12.4979 22.2757C14.0113 22.2757 15.5016 21.9054 16.839 21.1971C18.1763 20.4887 19.32 19.4639 20.1703 18.212C21.0206 16.9601 21.5516 15.5191 21.717 14.0148C21.8824 12.5105 21.6772 10.9886 21.1193 9.58181C20.5614 8.17505 19.6677 6.92617 18.5162 5.94415C17.3648 4.96213 15.9905 4.27679 14.5133 3.94794C13.0361 3.61908 11.5008 3.6567 10.0415 4.0575C8.5822 4.4583 7.24313 5.21012 6.14113 6.24735L6.14633 6.24319L8.70488 8.80173C8.81758 8.91455 8.89429 9.05826 8.92532 9.21469C8.95635 9.37111 8.94029 9.53323 8.87919 9.68053C8.81808 9.82783 8.71467 9.9537 8.58202 10.0422C8.44938 10.1308 8.29347 10.178 8.134 10.1779H0.806316C0.592467 10.1779 0.387378 10.0929 0.236164 9.94172C0.0849509 9.7905 0 9.58541 0 9.37157V2.04389C0.000412123 1.88464 0.0479117 1.72906 0.136523 1.59674C0.225134 1.46442 0.350899 1.36126 0.497995 1.30024C0.645092 1.23922 0.806949 1.22306 0.963205 1.2538C1.11946 1.28455 1.26314 1.36081 1.37615 1.47301L3.8649 3.96175C6.18833 1.73621 9.28262 0.495731 12.5 0.500011C19.3953 0.500011 24.9875 6.0838 25 12.976V12.9771L24.9989 12.9781ZM15.8805 16.9482L16.3753 16.3117C16.5723 16.0589 16.6608 15.7382 16.6213 15.4201C16.5819 15.1021 16.4177 14.8127 16.1649 14.6157L16.1617 14.6137L14.1105 13.0177V7.75893C14.1105 7.09117 13.5688 6.54842 12.9 6.54842H12.0937C11.4259 6.54842 10.8832 7.09013 10.8832 7.75893V14.5928L14.1803 17.1566C14.3052 17.2547 14.4483 17.3273 14.6013 17.3701C14.7543 17.4129 14.9142 17.4251 15.0719 17.4061C15.2296 17.387 15.382 17.337 15.5204 17.259C15.6588 17.181 15.7804 17.0764 15.8784 16.9513L15.8805 16.9482Z" fill="white"/>
</svg>
