<svg width="28" height="28" viewBox="0 0 28 28" fill="none" xmlns="http://www.w3.org/2000/svg">
<path d="M14.25 0.5C6.65588 0.5 0.5 6.65588 0.5 14.25C0.5 21.8441 6.65588 28 14.25 28C21.8441 28 28 21.8441 28 14.25C28 6.65588 21.8441 0.5 14.25 0.5ZM21.125 14.25C21.125 15.0094 20.5094 15.625 19.75 15.625H15.625V19.75C15.625 20.5094 15.0094 21.125 14.25 21.125C13.4906 21.125 12.875 20.5094 12.875 19.75V15.625H8.75C7.99061 15.625 7.375 15.0094 7.375 14.25C7.375 13.4906 7.99061 12.875 8.75 12.875H12.875V8.75C12.875 7.99061 13.4906 7.375 14.25 7.375C15.0094 7.375 15.625 7.99061 15.625 8.75V12.875H19.75C20.5094 12.875 21.125 13.4906 21.125 14.25Z" fill="white"/>
</svg>
