<svg width="84" height="85" viewBox="0 0 84 85" fill="none" xmlns="http://www.w3.org/2000/svg">
<path d="M29.5901 56.9788L20.3284 91.5437L3.04594 86.9129C-0.391754 85.9918 -3.32273 83.7427 -5.10222 80.6606C-6.8817 77.5784 -7.36392 73.9156 -6.44279 70.4779L-1.81197 53.1954C-1.50492 52.0495 -0.755248 51.0726 0.272136 50.4794C1.29952 49.8862 2.52046 49.7255 3.66636 50.0325L29.5901 56.9788ZM64.155 66.2404C65.3009 66.5475 66.2779 67.2971 66.8711 68.3245C67.4642 69.3519 67.625 70.5728 67.3179 71.7187L62.6871 89.0012C61.766 92.4389 59.5169 95.3699 56.4348 97.1494C53.3526 98.9289 49.6898 99.4111 46.2521 98.49L28.9696 93.8591L38.2313 59.2942L64.155 66.2404ZM67.2459 11.4987C69.7975 12.1819 72.1347 13.4994 74.04 15.3288C75.9453 17.1582 77.3568 19.44 78.143 21.9616C78.9293 24.4833 79.0647 27.1628 78.5368 29.7509C78.0088 32.339 76.8346 34.7515 75.1235 36.7637L76.5796 37.1538C78.8714 37.7679 80.8253 39.2672 82.0117 41.322C83.198 43.3768 83.5195 45.8187 82.9054 48.1105L81.7477 52.4311C81.1336 54.7229 79.6342 56.6769 77.5795 57.8632C75.5247 59.0495 73.0828 59.371 70.791 58.7569L40.5467 50.6529L46.3352 29.0499L37.694 26.7345L31.9055 48.3375L1.66115 40.2336C-0.630646 39.6195 -2.58463 38.1202 -3.77096 36.0654C-4.95728 34.0106 -5.27876 31.5687 -4.66467 29.2769L-3.50697 24.9563C-2.89288 22.6645 -1.39353 20.7105 0.661237 19.5242C2.71601 18.3379 5.15788 18.0164 7.44968 18.6305L8.90573 19.0207C8.48884 16.7378 8.58465 14.3908 9.18624 12.1496C11.4241 3.79783 20.0086 -1.15845 28.2869 1.05971C35.9043 2.96187 41.3326 9.61215 43.8188 18.8083L44.1251 20.0157C50.8042 12.9419 58.791 9.525 66.3406 11.2654L67.2459 11.4987ZM26.045 9.72063C24.3261 9.26006 22.4947 9.50117 20.9536 10.3909C19.4125 11.2807 18.288 12.7461 17.8275 14.465C17.3669 16.1838 17.608 18.0153 18.4978 19.5563C19.3875 21.0974 20.853 22.2219 22.5718 22.6825L36.1515 26.3211C35.1554 17.2325 31.2269 11.0165 26.045 9.72063ZM64.8571 20.1203C59.7819 18.6678 53.2836 22.0946 47.8777 29.4632L61.4574 33.1018C63.1789 33.5527 65.0089 33.3012 66.5449 32.4027C68.081 31.5042 69.1972 30.0324 69.648 28.3109C70.0988 26.5894 69.8473 24.7594 68.9489 23.2234C68.0504 21.6873 66.5785 20.5711 64.8571 20.1203Z" fill="white" fill-opacity="0.55"/>
</svg>
