<svg width="24" height="25" viewBox="0 0 24 25" fill="none" xmlns="http://www.w3.org/2000/svg">
<path d="M10.5328 25C9.97031 25 9.48615 24.8125 9.08031 24.4375C8.67448 24.0625 8.42948 23.6042 8.34531 23.0625L8.06406 21C7.79323 20.8958 7.53823 20.7708 7.29906 20.625C7.0599 20.4792 6.82531 20.3229 6.59531 20.1563L4.65781 20.9688C4.13698 21.1979 3.61615 21.2188 3.09531 21.0313C2.57448 20.8438 2.16823 20.5104 1.87656 20.0313L0.407812 17.4688C0.116146 16.9896 0.0328125 16.4792 0.157813 15.9375C0.282813 15.3958 0.564063 14.9479 1.00156 14.5938L2.65781 13.3438C2.63698 13.1979 2.62656 13.0571 2.62656 12.9213V12.0775C2.62656 11.9425 2.63698 11.8021 2.65781 11.6563L1.00156 10.4063C0.564063 10.0521 0.282813 9.60417 0.157813 9.0625C0.0328125 8.52083 0.116146 8.01042 0.407812 7.53125L1.87656 4.96875C2.16823 4.48958 2.57448 4.15625 3.09531 3.96875C3.61615 3.78125 4.13698 3.80208 4.65781 4.03125L6.59531 4.84375C6.82448 4.67708 7.06406 4.52083 7.31406 4.375C7.56406 4.22917 7.81406 4.10417 8.06406 4L8.34531 1.9375C8.42865 1.39583 8.67365 0.9375 9.08031 0.5625C9.48698 0.1875 9.97115 0 10.5328 0H13.4703C14.0328 0 14.5174 0.1875 14.9241 0.5625C15.3307 0.9375 15.5753 1.39583 15.6578 1.9375L15.9391 4C16.2099 4.10417 16.4653 4.22917 16.7053 4.375C16.9453 4.52083 17.1795 4.67708 17.4078 4.84375L19.3453 4.03125C19.8661 3.80208 20.387 3.78125 20.9078 3.96875C21.4286 4.15625 21.8349 4.48958 22.1266 4.96875L23.5953 7.53125C23.887 8.01042 23.9703 8.52083 23.8453 9.0625C23.7203 9.60417 23.4391 10.0521 23.0016 10.4063L21.3453 11.6563C21.3662 11.8021 21.3766 11.9429 21.3766 12.0788V12.9213C21.3766 13.0571 21.3557 13.1979 21.3141 13.3438L22.9703 14.5938C23.4078 14.9479 23.6891 15.3958 23.8141 15.9375C23.9391 16.4792 23.8557 16.9896 23.5641 17.4688L22.0641 20.0313C21.7724 20.5104 21.3662 20.8438 20.8453 21.0313C20.3245 21.2188 19.8036 21.1979 19.2828 20.9688L17.4078 20.1563C17.1786 20.3229 16.9391 20.4792 16.6891 20.625C16.4391 20.7708 16.1891 20.8958 15.9391 21L15.6578 23.0625C15.5745 23.6042 15.3299 24.0625 14.9241 24.4375C14.5182 24.8125 14.0336 25 13.4703 25H10.5328ZM12.0641 16.875C13.2724 16.875 14.3036 16.4479 15.1578 15.5938C16.012 14.7396 16.4391 13.7083 16.4391 12.5C16.4391 11.2917 16.012 10.2604 15.1578 9.40625C14.3036 8.55208 13.2724 8.125 12.0641 8.125C10.8349 8.125 9.79823 8.55208 8.95406 9.40625C8.1099 10.2604 7.68823 11.2917 7.68906 12.5C7.6899 13.7083 8.11198 14.7396 8.95531 15.5938C9.79865 16.4479 10.8349 16.875 12.0641 16.875Z" fill="white"/>
</svg>
